<svg width="120" height="115" viewBox="0 0 120 115" fill="none" xmlns="http://www.w3.org/2000/svg">
<rect x="4" y="4" width="112" height="107" rx="31" stroke="#444444" stroke-width="8"/>
<path fill-rule="evenodd" clip-rule="evenodd" d="M91.4252 39.4225L91.83 39.8269L58.2419 73.4523C53.164 78.5359 44.9249 78.5359 39.8469 73.4523L28.17 61.7623L28.5494 61.3834C28.2016 60.8396 28 60.1933 28 59.5C28 57.567 29.567 56 31.5 56C32.1947 56 32.8422 56.2024 33.3866 56.5515L33.83 56.1086L45.5069 67.7986C47.46 69.7538 50.6289 69.7538 52.5819 67.7986L86.17 34.1731L86.5743 34.5769C87.1267 34.2123 87.7885 34 88.5 34C90.433 34 92 35.567 92 37.5C92 38.2101 91.7886 38.8707 91.4252 39.4225Z" fill="#444444"/>
</svg>
