<svg width="121" height="116" viewBox="0 0 121 116" fill="none" xmlns="http://www.w3.org/2000/svg">
<path d="M85.1835 0C104.388 0.063063 120.442 17.2209 120.5 38L120 47.0891L119.961 47.7125C119.68 49.9549 117.65 51.5 115.5 51.5V51.5111H115.033C114.154 51.3596 112.5 51.5 111.5 50.5C110.5 49.5 110 48.3075 110 47.0891V37.6713C109.856 22.0371 99.633 11.1556 85.1835 11H34.8165C20.367 11.1556 11.1438 22.0371 11 37.6713V78.5876C11.1438 94.2218 20.367 104.844 34.8165 105H85.1835C99.633 104.844 108.856 92.1342 109 76.5C109.243 74.1454 114 73.5 115.728 74.1933C118 75.1052 119.757 75.9741 120 78.3287C119.942 99.1078 104.388 115.937 85.1835 116H34.8165C15.6 115.968 0.0292266 99.1209 0 78.3287V37.6713C0 16.866 15.5879 0 34.8165 0H85.1835ZM25.7666 34.7158C26.8842 34.5862 28.0031 34.9476 28.8722 35.7188L53.8169 57.0812C56.9328 59.7265 61.3157 59.7265 64.4317 57.0812L89.111 35.7188H89.1641L89.6844 35.3344C91.4774 34.2077 93.807 34.6234 95.1614 36.4079C95.8712 37.3649 96.432 38.6917 96.5 40C96.5 41.1917 96.0535 42.7424 95.1614 43.5L70.5 65C64.2248 70.4639 54.2752 70.4639 48 65L22.9279 44L21.5 42.5C20.1053 40.8398 21.172 38.3076 22.5 36.5C23.1984 35.5471 24.649 34.8453 25.7666 34.7158Z" fill="#444444"/>
</svg>
