<svg width="97" height="114" viewBox="0 0 97 114" fill="none" xmlns="http://www.w3.org/2000/svg">
<path d="M0.0102913 67.9006V66.7352C0.209311 63.0026 1.38725 59.3866 3.42721 56.246C6.82876 52.4348 9.16718 47.8054 10.2101 42.8179C10.465 39.0175 10.2101 35.1158 10.465 31.2647C12.301 12.7694 30.6096 0 48.1532 0H48.6632C66.5127 0 84.3623 12.7694 86.3003 31.2647C86.6573 35.0651 86.3003 39.0175 86.6063 42.8179C87.6238 47.8141 89.9654 52.4498 93.3891 56.246C95.5177 59.3508 96.736 62.9823 96.9084 66.7352V67.9006C96.9394 72.9561 95.1278 77.852 91.8081 81.6834C87.5494 86.2261 81.7602 89.0571 75.5395 89.6389C57.3744 91.9697 38.983 91.9697 20.8178 89.6389C14.6695 89.0092 8.96068 86.1821 4.75318 81.6834C1.53759 77.8153 -0.14863 72.9151 0.0102913 67.9006Z" fill="#444444"/>
<path opacity="0.4" d="M55.0891 97.4424C51.4682 97.1891 48.5102 97.4424 45.5523 97.4424C42.6188 97.3918 39.6901 97.6981 36.8315 98.3545C34.3836 98.9119 31.7316 100.229 31.7316 103.016C31.9885 105.71 33.4487 108.147 35.7095 109.654C40.0646 112.98 45.5528 114.489 51.0092 113.86C56.3129 113.469 61.1606 110.735 64.2179 106.411C65.9077 104.221 65.5222 101.089 63.3509 99.368C60.7798 98.1112 57.9544 97.4527 55.0891 97.4424Z" fill="#444444"/>
</svg>
