<svg width="115" height="123" viewBox="0 0 115 123" fill="none" xmlns="http://www.w3.org/2000/svg">
<path fill-rule="evenodd" clip-rule="evenodd" d="M108.866 35.981L105.142 29.519C101.992 24.0513 95.0103 22.1651 89.535 25.3024C86.9288 26.8377 83.8188 27.2733 80.891 26.5131C77.9632 25.7529 75.458 23.8593 73.9279 21.25C72.9435 19.5915 72.4146 17.7024 72.3946 15.7738C72.4834 12.6818 71.3168 9.68555 69.1607 7.46756C67.0046 5.24956 64.0426 3.99873 60.9493 4H53.4469C50.4165 4 47.5109 5.20755 45.3732 7.35553C43.2355 9.50352 42.0419 12.4148 42.0565 15.4452C41.9666 21.702 36.8687 26.7268 30.6112 26.7262C28.6827 26.7062 26.7936 26.1772 25.135 25.1929C19.6598 22.0555 12.6783 23.9418 9.52789 29.4095L5.53028 35.981C2.38374 41.4419 4.24431 48.419 9.69218 51.5881C13.2334 53.6326 15.4149 57.411 15.4149 61.5C15.4149 65.589 13.2334 69.3674 9.69218 71.4119C4.25123 74.5596 2.38863 81.5198 5.53028 86.9643L9.30885 93.481C10.7849 96.1444 13.2615 98.1098 16.1906 98.9423C19.1197 99.7747 22.2598 99.4057 24.916 97.9167C27.5272 96.393 30.6389 95.9756 33.5594 96.7571C36.4798 97.5386 38.9671 99.4544 40.4684 102.079C41.4527 103.737 41.9817 105.626 42.0017 107.555C42.0017 113.876 47.1259 119 53.4469 119H60.9493C67.249 119 72.3644 113.909 72.3946 107.61C72.3799 104.57 73.581 101.65 75.7306 99.5003C77.8802 97.3508 80.7999 96.1496 83.8398 96.1643C85.7637 96.2158 87.645 96.7425 89.316 97.6976C94.7769 100.844 101.754 98.9836 104.923 93.5357L108.866 86.9643C110.392 84.3447 110.811 81.2248 110.03 78.2954C109.249 75.3661 107.332 72.869 104.704 71.3571C102.076 69.8453 100.159 67.3482 99.3783 64.4189C98.5971 61.4895 99.016 58.3696 100.542 55.75C101.535 54.0172 102.971 52.5806 104.704 51.5881C110.119 48.4207 111.976 41.4844 108.866 36.0357V35.981Z" stroke="#444444" stroke-width="8" stroke-linecap="round" stroke-linejoin="round"/>
<path d="M57.2251 77.2704C65.9349 77.2704 72.9956 70.2097 72.9956 61.4999C72.9956 52.7901 65.9349 45.7294 57.2251 45.7294C48.5153 45.7294 41.4546 52.7901 41.4546 61.4999C41.4546 70.2097 48.5153 77.2704 57.2251 77.2704Z" stroke="#444444" stroke-width="8" stroke-linecap="round" stroke-linejoin="round"/>
</svg>
