<svg width="121" height="120" viewBox="0 0 121 120" fill="none" xmlns="http://www.w3.org/2000/svg">
<path fill-rule="evenodd" clip-rule="evenodd" d="M89.4026 112H31C18.2975 112 8 101.703 8 89V31.3974C8 18.5803 18.4769 8.23603 31.293 8.39929L66 8.84142V16C66 36.4345 82.5655 53 103 53H112.875L112.401 89.3007C112.236 101.885 101.988 112 89.4026 112ZM0 31.3974C0 14.1222 14.121 0.17989 31.3949 0.399939L70.8317 0.902319C75.8592 0.966363 80.7856 2.32325 85.1369 4.84241C87.0396 5.94397 88.8122 7.25622 90.4213 8.75437L112.83 29.6175C115.576 32.1742 117.723 35.3065 119.116 38.7901C120.36 41.8994 120.977 45.2237 120.934 48.5723L120.4 89.4052C120.178 106.367 106.365 120 89.4026 120H31C13.8792 120 0 106.121 0 89V31.3974Z" fill="#444444"/>
<rect x="27" y="92" width="7" height="26" rx="3.5" transform="rotate(-90 27 92)" fill="#444444"/>
<rect x="27" y="78" width="7" height="26" rx="3.5" transform="rotate(-90 27 78)" fill="#444444"/>
</svg>
