<svg width="160" height="153" viewBox="0 0 160 153" fill="none" xmlns="http://www.w3.org/2000/svg">
<path d="M63.8885 89.0609C75.7808 89.0609 85.4215 79.7646 85.4215 68.297C85.4215 56.8293 75.7808 47.533 63.8885 47.533C51.9961 47.533 42.3555 56.8293 42.3555 68.297C42.3555 79.7646 51.9961 89.0609 63.8885 89.0609Z" stroke="#444444" stroke-width="8" stroke-miterlimit="10"/>
<path d="M91.7134 48.3102C94.6401 47.5066 97.7094 47.3235 100.715 47.7733C103.72 48.2232 106.592 49.2955 109.136 50.918C111.68 52.5406 113.838 54.6757 115.465 57.1796C117.091 59.6835 118.148 62.498 118.565 65.4335C118.981 68.3691 118.747 71.3575 117.879 74.1975C117.01 77.0375 115.528 79.6632 113.53 81.8977C111.533 84.1322 109.068 85.9235 106.3 87.1512C103.533 88.3788 100.528 89.0142 97.487 89.0146C103.266 89.0105 110.285 90.3636 115.414 92.9594C120.542 95.5551 124.386 99.0584 129.256 108.543M34.1522 108.543C36.972 103.16 43.1233 95.5552 48.2512 92.9594C53.3791 90.3636 58.349 89.0148 64.1273 89.0146C69.9056 89.0143 76.448 90.3639 81.5761 92.9594C92.1661 98.3192 94.1634 103.936 97.487 108.543" stroke="#444444" stroke-width="8" stroke-linecap="round" stroke-linejoin="round"/>
<rect x="5" y="5" width="150" height="143" rx="40" stroke="#444444" stroke-width="10"/>
</svg>
